<?xml version="1.0" standalone="no"?>
<!DOCTYPE svg PUBLIC "-//W3C//DTD SVG 20010904//EN"
 "http://www.w3.org/TR/2001/REC-SVG-20010904/DTD/svg10.dtd">
<svg version="1.0" xmlns="http://www.w3.org/2000/svg"
 width="800.000000pt" height="800.000000pt" viewBox="0 0 800.000000 800.000000"
 preserveAspectRatio="xMidYMid meet">
<metadata>
Created by potrace 1.14, written by Peter Selinger 2001-2017
</metadata>
<g transform="translate(0.000000,800.000000) scale(0.100000,-0.100000)"
fill="#000000" stroke="none">
<path d="M1931 7263 c-1 -19 -7 -23 -31 -23 -17 0 -33 7 -39 18 -9 15 -10 15
-11 1 0 -11 -11 -18 -31 -21 -24 -4 -33 0 -39 16 -9 21 -9 21 -9 -1 -1 -19 -7
-23 -31 -23 -17 0 -33 7 -39 18 -9 15 -10 15 -11 1 0 -9 -10 -19 -22 -23 -35
-9 -38 -8 -48 17 l-9 22 0 -22 c-1 -19 -7 -23 -31 -23 -19 0 -33 6 -37 17 -5
14 -8 13 -14 -5 -11 -29 -60 -27 -67 3 -5 18 -6 18 -12 -5 -4 -15 -12 -25 -23
-24 -9 1 -24 2 -32 3 -8 0 -15 9 -16 19 0 14 -2 13 -9 -4 -12 -31 -47 -37 -65
-11 -12 17 -15 18 -15 5 0 -33 -57 -38 -70 -5 -9 22 -9 22 -9 1 -1 -14 -9 -24
-23 -28 -35 -9 -38 -8 -48 17 l-9 22 0 -22 c-1 -13 -7 -24 -13 -25 -37 -4 -44
-2 -55 17 -12 20 -12 20 -13 -2 0 -22 -4 -25 -35 -25 -29 0 -34 2 -38 20 -3
11 -5 9 -6 -8 -1 -21 -6 -25 -30 -26 -20 -1 -32 5 -39 20 l-11 21 0 -22 c-1
-19 -7 -23 -31 -23 -17 0 -33 7 -40 18 -10 15 -10 15 -8 -3 2 -16 -3 -20 -24
-20 -16 1 -28 -4 -28 -10 -1 -5 -7 1 -15 15 l-14 25 -1 -23 c0 -15 -5 -22 -12
-19 -7 2 -21 0 -30 -5 -13 -6 -18 -5 -18 6 0 8 -5 18 -10 21 -6 4 -10 3 -9 -2
3 -18 -1 -36 -8 -30 -3 4 -12 2 -19 -4 -9 -7 -18 -4 -35 13 -12 13 -19 18 -15
11 9 -17 -21 -42 -44 -36 -11 3 -20 9 -20 14 0 5 -4 9 -10 9 -5 0 -9 -6 -7
-12 1 -9 -13 -13 -41 -14 -24 -1 -48 -6 -54 -12 -12 -12 -38 -4 -55 17 -10 13
-11 12 -6 -8 4 -17 3 -22 -5 -17 -7 4 -12 3 -12 -3 0 -14 -26 -7 -49 13 -19
17 -19 17 -14 -2 7 -30 -52 -37 -66 -8 -10 21 -10 21 -10 -1 -1 -24 -38 -40
-66 -30 -8 4 -17 1 -21 -5 -4 -6 -3 -8 3 -5 15 9 35 -18 31 -40 -2 -12 -11
-17 -28 -16 -25 3 -25 3 -3 -7 24 -10 31 -34 13 -45 -6 -3 -8 -16 -5 -28 6
-27 -4 -43 -30 -50 -18 -4 -18 -5 3 -6 26 -1 28 -18 7 -48 -11 -16 -12 -22 -3
-25 9 -3 8 -12 -5 -31 -19 -30 -22 -41 -7 -32 13 8 13 -11 0 -35 -6 -12 -18
-17 -30 -15 -12 2 -18 0 -15 -6 4 -5 10 -7 14 -5 4 3 13 1 20 -4 11 -6 11 -13
-2 -39 -9 -17 -11 -29 -6 -26 16 10 10 -27 -8 -47 -10 -12 -12 -18 -4 -18 23
0 7 -45 -16 -48 -13 -2 -23 -7 -23 -12 0 -4 9 -6 21 -3 18 5 20 2 17 -23 -2
-16 -8 -29 -15 -29 -6 0 -15 -4 -20 -8 -4 -5 -1 -7 7 -5 12 2 15 -7 16 -42 0
-59 -6 -81 -20 -73 -6 3 -6 0 1 -8 14 -14 18 -59 5 -59 -11 0 -13 -668 -1
-675 13 -8 11 -45 -2 -45 -5 0 -7 -5 -4 -10 4 -6 11 -8 16 -5 5 4 9 0 9 -9 0
-8 3 -21 6 -30 4 -11 1 -16 -11 -16 -9 0 -13 -5 -10 -10 4 -6 12 -7 23 -1 12
7 19 3 30 -17 12 -23 11 -28 -5 -40 -16 -12 -15 -13 10 -7 37 10 60 -10 53
-44 -5 -21 -4 -23 4 -9 9 14 15 15 41 6 26 -9 30 -14 24 -35 -5 -23 -5 -24 10
-9 29 28 80 8 69 -27 l-6 -22 16 22 c23 30 75 20 77 -15 0 -12 3 -10 10 6 7
19 15 23 41 20 18 -2 33 -8 33 -15 0 -6 4 -15 9 -20 5 -4 7 -3 3 2 -9 16 5 31
36 39 22 5 29 2 38 -16 9 -22 9 -22 5 -2 -2 16 3 25 21 33 33 15 44 14 59 -6
13 -16 13 -15 5 8 -8 23 -6 28 15 38 19 8 31 8 47 0 22 -12 22 -12 4 9 -18 20
-18 21 7 37 14 9 30 14 35 10 7 -3 8 0 5 9 -8 22 24 52 39 37 17 -17 26 -13
20 8 -6 25 32 35 53 13 15 -15 16 -14 10 5 -5 17 -1 23 23 31 27 9 31 8 37
-11 7 -22 8 -22 13 2 7 28 35 36 55 15 12 -11 15 -11 19 5 6 23 45 21 63 -4
12 -17 14 -17 14 -2 0 9 5 18 10 18 6 1 16 2 23 3 18 3 38 -14 31 -28 -3 -6 3
0 14 13 13 16 21 20 26 12 4 -6 12 -9 17 -5 6 3 13 -4 16 -15 5 -20 6 -20 18
-4 11 14 17 15 39 5 18 -8 24 -17 20 -29 -5 -15 -4 -16 5 -3 11 17 51 23 51 8
0 -5 5 -6 10 -3 14 9 13 -8 -2 -23 -9 -9 -9 -12 0 -12 7 0 12 5 12 10 0 13 26
13 51 -1 16 -8 18 -13 8 -25 -7 -9 -8 -14 -1 -14 6 0 14 4 17 10 4 6 16 4 31
-6 20 -14 22 -19 12 -32 -11 -13 -10 -14 8 -4 18 9 25 8 39 -8 15 -17 16 -22
4 -37 -12 -16 -12 -17 2 -5 9 7 23 10 32 6 19 -7 32 -37 18 -42 -6 -2 -11 -8
-11 -14 0 -6 6 -5 16 2 18 15 28 7 63 -52 21 -35 21 -37 4 -48 -16 -10 -14
-11 9 -7 33 5 48 -30 20 -51 -13 -11 -14 -13 -2 -12 29 4 38 0 43 -21 4 -14
-1 -23 -16 -30 l-22 -10 22 5 c27 5 36 -7 35 -45 0 -16 4 -29 9 -29 19 0 8
-37 -13 -48 -22 -11 -21 -11 5 -6 24 6 27 3 27 -20 0 -18 -7 -30 -22 -36 -23
-10 -23 -10 2 -7 21 2 26 -3 28 -25 3 -26 -5 -33 -30 -29 -5 0 -8 -4 -8 -10 0
-6 8 -8 19 -4 17 5 19 0 19 -55 0 -48 -3 -60 -14 -56 -7 3 -16 1 -19 -5 -4 -5
-3 -9 2 -8 23 4 33 -3 33 -26 0 -19 -5 -25 -22 -26 l-23 0 23 -9 c15 -6 22
-18 22 -35 0 -20 -5 -25 -27 -26 -28 0 -28 0 -5 -10 29 -11 28 -56 -2 -51 -11
2 -15 -1 -11 -7 3 -6 12 -11 19 -11 9 0 12 -9 8 -25 -2 -14 -8 -25 -13 -25 -5
0 -6 -14 -2 -30 3 -17 2 -30 -3 -29 -20 3 -26 -2 -15 -15 17 -20 2 -46 -28
-47 -24 -2 -24 -2 -3 -6 18 -4 22 -9 16 -26 -8 -27 -22 -37 -43 -30 -11 4 -9
0 4 -10 16 -13 18 -19 9 -34 -7 -11 -21 -17 -35 -16 l-24 3 23 -10 c20 -8 21
-12 10 -30 -7 -11 -19 -20 -26 -20 -9 0 -12 -6 -8 -16 9 -22 -19 -46 -46 -40
-13 3 -17 3 -10 0 17 -8 15 -29 -5 -49 -16 -16 -17 -16 -30 1 -7 10 -13 13
-13 8 0 -6 5 -15 10 -20 8 -8 6 -15 -6 -24 -19 -17 -44 -22 -44 -9 0 5 -5 9
-12 9 -9 0 -9 -3 0 -12 17 -17 15 -23 -13 -36 -15 -7 -27 -8 -30 -2 -4 6 -12
10 -18 10 -8 0 -7 -3 2 -9 7 -5 11 -13 7 -19 -8 -14 -45 -22 -52 -11 -9 15
-22 10 -20 -8 0 -10 -6 -18 -14 -18 -8 0 -21 -4 -27 -8 -8 -5 -13 -3 -13 7 0
8 -5 18 -12 22 -6 4 -8 3 -4 -4 8 -13 -32 -42 -50 -35 -7 2 -15 12 -17 21 -4
15 -5 15 -6 1 -1 -20 -47 -31 -61 -14 -5 6 -6 16 -2 20 4 5 1 5 -6 1 -6 -4
-12 -14 -12 -22 0 -12 -4 -13 -22 -3 -13 7 -25 11 -28 10 -3 -1 -8 8 -12 21
-4 15 -6 17 -7 6 -1 -23 -19 -32 -35 -19 -7 6 -16 7 -21 3 -4 -4 -5 3 -2 16 3
12 1 22 -4 22 -5 0 -9 -5 -9 -10 0 -6 -12 -9 -28 -7 -20 3 -27 9 -26 25 0 18
-3 19 -19 10 -27 -14 -56 14 -37 36 14 17 3 21 -19 7 -16 -10 -53 8 -45 21 3
4 -6 18 -20 31 -24 23 -25 25 -9 48 16 23 16 23 0 10 -14 -11 -23 -12 -43 -2
-22 9 -25 16 -20 37 6 24 6 25 -9 11 -13 -13 -20 -14 -41 -5 -20 9 -25 17 -21
37 l5 25 -17 -22 c-13 -18 -21 -20 -46 -13 -22 6 -29 13 -27 27 2 18 2 18 -11
2 -18 -23 -66 -23 -83 0 -12 16 -12 16 -11 -2 1 -14 -7 -23 -26 -30 -24 -9
-31 -7 -44 9 -14 19 -14 18 -7 -8 3 -15 2 -27 -2 -26 -5 1 -17 -1 -26 -5 -9
-4 -26 -2 -38 4 -20 11 -21 10 -12 -6 8 -14 5 -22 -14 -37 -21 -16 -27 -17
-42 -5 -15 11 -15 11 -5 -3 10 -12 9 -20 -3 -37 -16 -23 -44 -30 -44 -10 0 6
-3 8 -6 5 -4 -4 -1 -13 6 -22 10 -12 10 -18 -1 -32 -7 -10 -14 -19 -15 -21 -1
-2 -13 2 -26 9 -22 12 -23 11 -5 -8 28 -31 11 -58 -33 -54 -11 1 -11 -1 2 -9
22 -14 23 -34 2 -54 -8 -9 -13 -20 -9 -26 12 -19 -14 -48 -37 -44 l-23 5 23
-11 c31 -13 26 -52 -8 -61 -24 -7 -24 -7 -2 -8 23 -1 32 -34 12 -46 -6 -4 -8
-15 -5 -24 6 -21 -4 -53 -14 -47 -4 3 -13 1 -21 -5 -12 -7 -10 -9 8 -9 20 0
23 -5 20 -27 -2 -22 -8 -28 -26 -27 -12 1 -20 -1 -17 -5 4 -3 12 -6 18 -6 7 0
13 -12 15 -27 2 -17 -1 -28 -9 -28 -9 0 -9 -3 1 -15 19 -22 3 -57 -23 -50 -21
5 -21 5 1 -6 23 -13 32 -59 10 -59 -9 0 -9 -3 0 -12 15 -15 16 -48 2 -48 -7 0
-8 -13 -4 -35 4 -25 3 -35 -6 -35 -8 0 -9 -4 -3 -12 14 -18 13 -118 0 -118 -8
0 -8 -3 0 -11 14 -14 4 -57 -16 -62 -14 -4 -14 -5 2 -6 20 -1 24 -46 5 -55
-11 -5 -11 -7 0 -12 19 -9 15 -52 -5 -57 -17 -4 -17 -5 0 -6 11 -1 17 -9 17
-26 0 -17 -6 -25 -17 -25 -15 0 -16 -2 -3 -10 13 -8 15 -49 16 -264 1 -227 0
-256 -15 -259 -14 -4 -13 -5 2 -6 20 -1 24 -46 5 -54 -10 -4 -10 -7 0 -15 9
-6 15 -40 18 -96 4 -82 3 -86 -17 -86 -11 0 -18 -4 -14 -10 3 -5 13 -6 21 -3
12 4 15 0 12 -23 -2 -16 -8 -29 -15 -29 -6 0 -15 -4 -20 -8 -4 -5 -4 -8 2 -7
37 8 50 -30 18 -49 -17 -10 -17 -10 0 -11 11 0 17 -8 17 -25 0 -17 -6 -25 -17
-25 -13 0 -12 -4 6 -19 26 -23 24 -58 -2 -53 -9 2 -17 -2 -17 -7 0 -5 9 -8 19
-6 18 3 19 -3 19 -78 0 -107 -4 -122 -26 -105 -15 12 -16 11 -3 -4 7 -10 17
-16 21 -13 5 3 12 -4 15 -16 4 -13 2 -25 -5 -29 -9 -5 -9 -9 -1 -14 17 -11 13
-44 -6 -55 -17 -10 -17 -10 -1 -11 13 0 17 -10 17 -47 0 -27 2 -68 3 -93 3
-38 0 -45 -14 -42 -10 2 -18 -2 -18 -8 0 -5 3 -9 8 -9 38 6 46 -36 10 -51
l-23 -9 24 0 c20 -1 23 -5 19 -31 -3 -17 -1 -33 4 -36 4 -3 8 -16 8 -30 0 -14
-4 -22 -10 -19 -5 3 -10 1 -10 -4 0 -6 5 -11 11 -11 6 0 9 -12 7 -27 -2 -17
-9 -28 -18 -28 -17 0 -21 -36 -4 -42 7 -2 19 3 27 12 9 8 27 14 41 13 24 -2
30 -9 27 -33 -1 -5 5 -2 12 7 7 9 22 15 33 13 10 -2 22 -4 27 -4 4 -1 7 -11 8
-23 l0 -23 11 22 c11 23 28 31 28 14 0 -5 9 -7 20 -4 15 4 20 0 20 -16 l0 -21
20 20 c17 17 23 18 40 8 11 -7 20 -22 21 -33 0 -20 1 -20 10 1 7 14 20 21 40
21 24 0 29 -4 30 -26 0 -22 1 -23 8 -7 8 21 37 30 47 15 3 -5 10 -7 15 -4 5 4
9 -4 10 -17 0 -22 0 -22 9 -2 12 29 70 22 70 -9 0 -19 1 -19 13 -5 22 30 67
27 68 -4 1 -17 2 -19 6 -5 2 9 10 17 16 18 7 0 20 2 30 4 11 2 19 -5 24 -23 6
-25 6 -25 14 -4 5 13 15 21 26 19 26 -4 44 -17 38 -28 -4 -5 -1 -9 4 -9 6 0
11 6 11 13 0 8 14 13 35 14 29 0 35 -3 36 -21 1 -17 2 -17 6 -4 7 27 61 24 72
-4 l8 -22 5 22 c5 16 11 19 29 15 13 -3 30 -13 36 -21 12 -14 13 -14 13 1 0
13 9 17 35 17 29 0 35 -4 36 -22 l0 -23 9 23 c7 16 18 22 40 22 24 0 30 -4 31
-22 l0 -23 9 23 c7 16 18 22 39 22 23 0 31 -5 34 -22 l4 -23 2 23 c1 18 7 22
36 22 27 0 35 -4 35 -17 1 -17 2 -17 13 -1 21 27 67 28 67 1 0 -9 3 -13 8 -9
4 4 7 13 7 19 0 7 16 13 35 14 19 1 38 2 43 3 4 2 12 4 17 5 6 1 11 3 13 5 11
9 39 6 44 -6 8 -21 22 -17 16 6 -7 25 41 47 63 29 16 -13 19 2 4 17 -7 7 -4
16 10 29 18 16 24 17 41 7 23 -15 25 -7 4 15 -18 17 -4 43 22 43 10 0 13 6 9
16 -10 25 13 57 36 51 19 -5 19 -5 3 13 -12 13 -15 25 -10 37 5 10 10 31 12
47 2 17 8 33 14 37 7 4 8 9 1 13 -14 9 -10 121 5 121 6 0 14 3 18 7 4 3 -5 5
-19 4 -16 -2 -26 2 -26 10 0 7 -2 19 -5 26 -4 9 4 19 17 26 22 11 22 11 -4 6
-23 -5 -28 -2 -34 21 -5 19 -1 30 12 41 18 14 17 14 -4 4 -20 -10 -26 -8 -38
7 -16 21 -18 43 -4 43 6 0 10 5 10 11 0 8 -4 8 -14 0 -11 -9 -20 -10 -35 -1
-24 12 -25 14 -10 42 9 16 8 19 -3 12 -37 -24 -60 5 -31 40 13 15 14 17 2 8
-9 -6 -20 -8 -24 -4 -5 4 -5 0 0 -8 6 -12 5 -13 -5 -3 -7 7 -13 26 -13 42 0
17 -6 32 -14 35 -19 8 -16 44 5 49 13 4 13 5 -4 6 -24 1 -40 46 -20 56 8 3 7
7 -1 11 -7 3 -13 17 -13 30 0 14 4 23 8 20 4 -2 14 0 22 5 11 7 7 8 -13 5 -26
-4 -28 -2 -25 22 2 17 9 27 20 27 9 0 20 4 24 8 4 4 -5 7 -20 7 -25 0 -27 3
-21 23 4 12 8 38 8 57 2 29 6 35 24 34 12 0 20 3 17 8 -3 4 -12 8 -20 8 -19 0
-18 25 2 44 8 9 12 20 9 26 -3 6 -3 19 0 30 5 15 12 19 33 15 26 -5 26 -5 3 5
-15 7 -21 15 -17 26 3 9 6 19 6 24 0 5 12 7 28 4 22 -3 24 -2 10 6 -22 14 -23
24 -2 45 13 13 19 13 33 3 14 -12 14 -11 3 4 -8 10 -11 26 -7 38 6 17 12 20
33 16 22 -5 24 -4 10 4 -17 10 -17 13 -2 35 13 20 20 23 34 15 27 -14 37 -12
16 3 -17 12 -17 14 -1 27 20 17 45 22 45 9 0 -5 5 -9 11 -9 8 0 7 5 -1 16 -11
12 -10 18 4 32 14 14 20 15 37 4 19 -12 20 -11 14 7 -8 26 29 49 51 30 12 -9
13 -9 9 3 -4 9 4 19 19 26 20 9 28 8 41 -4 13 -14 15 -13 13 8 -2 17 2 23 15
22 9 -1 17 3 17 10 1 6 10 0 22 -14 19 -23 20 -23 14 -4 -5 18 -2 23 20 28 18
5 32 2 44 -9 17 -16 18 -16 14 2 -3 12 0 20 8 20 7 0 20 4 29 7 10 5 19 -1 27
-16 10 -22 11 -22 11 -2 1 16 8 21 31 22 22 0 30 -4 30 -16 1 -14 3 -14 13 3
7 11 24 21 40 22 21 2 27 -2 28 -20 1 -17 2 -18 6 -4 4 17 9 20 38 20 31 0 35
-4 36 -25 0 -23 0 -23 9 -2 6 15 18 21 39 22 25 1 31 -3 31 -21 1 -20 2 -20
11 -4 14 24 44 21 62 -6 14 -20 16 -20 16 -3 1 12 6 16 17 12 9 -3 24 -6 34
-6 12 0 17 -6 15 -18 -1 -9 0 -11 2 -4 3 7 15 11 31 8 15 -2 31 -5 35 -5 5 -1
5 -11 1 -23 -6 -21 -6 -21 10 -5 24 23 62 8 59 -24 -2 -21 -1 -22 8 -6 13 22
25 22 59 -3 15 -11 30 -17 34 -13 3 3 6 1 6 -5 0 -7 7 -12 15 -12 18 0 19 -12
3 -28 -7 -7 -8 -12 -2 -12 6 0 15 5 20 10 7 7 18 4 34 -10 23 -20 23 -21 4
-35 -17 -14 -17 -14 9 -3 24 10 29 9 41 -7 12 -17 12 -21 -3 -33 -14 -12 -14
-12 5 -7 25 7 58 -20 50 -41 -3 -8 1 -14 8 -14 17 0 27 -25 19 -47 -4 -10 -2
-14 5 -9 10 6 39 -31 30 -38 -2 -2 -12 -8 -23 -15 -18 -10 -18 -11 7 -7 20 3
27 0 32 -17 4 -14 0 -26 -10 -34 -13 -10 -13 -12 5 -18 24 -7 29 -45 7 -45 -8
0 -17 -4 -20 -9 -3 -5 2 -8 12 -7 12 1 17 -6 17 -24 0 -14 -5 -25 -12 -25 -6
0 -15 -4 -20 -8 -4 -5 -3 -8 2 -7 31 7 35 -1 30 -51 -6 -59 -12 -72 -28 -62
-7 4 -6 0 2 -10 18 -22 7 -47 -21 -47 -20 0 -20 -1 -4 -13 17 -12 14 -47 -5
-47 -5 0 -9 -8 -9 -18 0 -11 -9 -29 -19 -41 -11 -12 -27 -32 -36 -44 -11 -15
-17 -18 -21 -9 -3 6 -11 12 -17 12 -8 0 -7 -4 1 -12 17 -17 15 -23 -11 -35
-15 -7 -29 -7 -40 -1 -11 6 -17 5 -17 -1 0 -5 6 -11 13 -14 22 -8 -23 -48 -47
-41 -14 3 -17 2 -8 -4 21 -14 4 -62 -22 -62 -19 -1 -19 -2 -4 -11 19 -11 14
-38 -10 -53 -11 -6 -12 -10 -2 -16 18 -11 4 -64 -15 -56 -8 3 -17 0 -21 -6 -4
-6 -3 -8 3 -5 19 12 46 -18 39 -41 -4 -12 -11 -20 -16 -17 -5 3 -11 1 -15 -4
-3 -6 3 -8 14 -6 13 2 22 -3 26 -14 8 -27 -4 -51 -23 -44 -14 4 -14 3 -3 -5 8
-6 20 -8 27 -5 7 2 18 -5 24 -17 10 -18 8 -24 -7 -35 -10 -7 -15 -17 -10 -21
4 -4 7 -2 7 4 0 18 25 14 44 -7 16 -18 16 -20 -1 -36 -16 -17 -16 -17 6 -10
17 5 28 1 44 -16 14 -15 17 -24 9 -27 -7 -2 -12 -8 -12 -14 0 -7 5 -6 14 1 19
16 68 -9 55 -30 -14 -22 -10 -32 6 -15 21 21 69 1 62 -26 -6 -21 8 -24 16 -4
5 12 11 13 36 3 25 -9 30 -16 25 -32 -6 -17 -5 -18 8 -7 8 6 27 11 42 10 20
-2 26 -8 27 -28 0 -25 0 -25 9 -2 8 18 14 21 37 16 39 -9 43 -12 37 -32 -4
-12 -2 -11 8 3 7 12 19 20 26 19 6 -1 21 -2 33 -3 16 -1 19 -5 14 -22 -5 -15
-4 -19 4 -15 6 4 11 13 11 20 0 7 11 11 28 10 43 -2 44 -3 38 -19 -3 -8 -2
-15 3 -15 5 0 11 8 14 19 6 24 63 23 61 -2 -2 -23 12 -22 19 2 4 17 17 19 60
12 4 0 7 -11 8 -23 1 -22 1 -22 8 2 5 19 13 25 36 25 23 0 31 -6 36 -25 l6
-25 4 25 c5 32 59 38 67 7 l5 -21 8 21 c5 14 15 20 31 18 36 -4 36 -4 41 -23
4 -13 5 -13 6 4 2 35 70 40 72 6 0 -12 3 -11 9 6 11 27 54 30 69 5 9 -16 10
-16 11 -2 0 10 12 20 27 24 21 5 31 1 45 -17 16 -22 17 -22 12 -2 -4 16 0 23
16 27 28 7 48 0 53 -21 3 -13 5 -11 6 4 2 35 70 40 72 6 0 -13 2 -12 9 4 14
35 69 39 71 6 0 -12 3 -10 9 5 11 28 54 31 70 6 10 -17 10 -16 8 2 -4 30 53
38 69 10 12 -20 12 -20 13 1 0 32 46 38 67 10 12 -16 14 -17 9 -3 -4 13 2 20
22 28 23 9 30 7 46 -13 14 -16 17 -18 13 -5 -5 13 0 20 19 27 35 14 39 13 52
-12 10 -20 11 -20 9 -3 -1 13 7 22 25 29 23 8 31 6 43 -10 8 -10 15 -14 14 -9
-4 28 2 37 21 32 10 -3 21 0 23 7 3 6 9 0 15 -14 7 -17 11 -20 11 -8 1 9 8 21
17 26 19 11 54 4 54 -9 0 -5 4 -9 10 -9 5 0 7 6 4 14 -8 21 47 32 62 12 16
-22 23 -20 17 5 -4 16 -2 20 8 17 8 -3 22 -1 32 4 15 8 20 5 25 -14 l6 -23 6
24 c8 33 44 37 66 8 l16 -22 -5 22 c-7 31 47 44 69 16 14 -17 14 -17 12 1 -4
25 50 43 59 20 8 -22 22 -16 15 8 -4 17 -2 20 11 15 9 -3 19 -1 23 4 4 7 15 2
28 -10 l23 -21 -1 21 c-1 28 49 36 64 11 8 -15 9 -14 10 7 0 18 4 22 20 18 11
-3 23 0 26 5 4 6 12 1 20 -13 l13 -24 1 23 c0 12 3 22 8 23 21 2 51 9 73 18
23 9 23 10 2 10 -12 1 -24 9 -28 21 -7 22 2 43 15 35 5 -3 11 -1 14 4 4 5 -2
8 -11 7 -36 -6 -44 35 -10 53 12 6 15 10 7 8 -18 -4 -40 16 -40 37 0 9 6 16
14 16 8 0 17 4 21 9 3 6 -4 8 -15 6 -11 -2 -20 0 -20 5 0 4 -3 15 -6 24 -4 11
2 19 17 25 l24 10 -22 0 c-13 1 -24 7 -25 14 0 6 -2 23 -3 37 -5 48 -16 113
-21 121 -5 8 10 13 29 10 4 0 7 4 7 9 0 6 -8 10 -17 8 -13 -2 -19 5 -21 24 -3
21 2 27 20 31 20 4 19 4 -5 6 -25 1 -28 5 -25 29 2 15 8 27 15 27 6 0 14 3 18
6 3 4 -5 6 -17 5 -19 -1 -23 4 -24 29 0 17 -4 38 -8 48 -10 20 0 51 13 42 5
-3 13 0 17 6 4 7 3 9 -4 5 -12 -7 -42 20 -42 39 0 7 10 16 23 18 22 4 22 4 0
6 -33 2 -35 43 -3 58 25 12 25 12 -4 6 -29 -6 -29 -5 -23 31 3 21 2 36 -4 36
-6 0 -9 12 -7 28 2 19 8 26 21 24 9 -2 17 2 17 8 0 6 -4 9 -8 6 -19 -11 -34
15 -38 67 -5 53 -4 56 17 52 12 -2 18 -1 15 3 -4 4 -12 8 -17 8 -5 1 -13 2
-19 3 -18 2 -12 51 7 51 15 0 15 1 1 13 -9 6 -18 21 -20 32 -2 15 2 20 20 19
21 -1 22 9 1 12 -5 1 -13 2 -19 3 -20 2 -10 42 13 51 l22 9 -22 0 c-33 1 -35
43 -3 58 l25 12 -25 -2 c-21 -2 -26 3 -28 27 -3 24 -1 28 14 22 17 -6 17 -6 0
13 -12 14 -16 28 -12 45 3 14 2 27 -3 30 -12 8 -11 98 2 114 6 8 6 12 -2 12
-6 0 -11 12 -11 26 0 22 3 25 23 21 l22 -6 -24 18 c-26 20 -25 57 2 55 9 -1
14 2 11 7 -3 5 -12 9 -20 9 -8 0 -14 10 -14 25 0 17 6 25 18 25 16 1 16 1 0
11 -10 5 -18 22 -18 36 0 20 4 24 20 20 11 -3 23 -1 26 4 3 5 2 9 -3 8 -22 -4
-44 2 -38 10 5 9 8 27 19 122 4 37 14 48 38 44 11 -3 17 -1 14 3 -4 4 -13 7
-18 7 -18 0 -20 22 -3 38 8 9 23 13 33 10 13 -4 13 -2 -3 11 -20 16 -20 16 3
35 12 11 22 24 22 29 0 5 7 15 16 23 12 10 20 10 34 1 16 -10 18 -9 13 5 -4 9
1 21 12 29 16 12 21 11 36 -2 16 -15 17 -14 12 8 -3 12 -2 20 2 16 4 -4 16 -3
26 3 16 8 21 6 28 -13 8 -22 8 -22 15 -2 4 14 14 20 29 18 12 -1 26 -3 31 -3
4 -1 5 -9 2 -18 -5 -16 -5 -16 6 -3 19 24 59 23 65 -1 5 -16 7 -17 17 -5 14
18 56 4 56 -20 0 -12 3 -14 13 -6 7 6 23 8 36 5 18 -4 22 -11 18 -30 -4 -21
-3 -22 12 -9 11 10 21 12 31 6 8 -5 18 -6 23 -3 6 4 7 -6 4 -23 -3 -16 -4 -23
-1 -16 8 17 39 15 54 -3 10 -12 10 -18 -1 -32 -13 -15 -12 -15 7 -3 18 11 25
11 43 -2 21 -15 21 -16 4 -33 -16 -17 -16 -17 6 -10 17 5 27 1 42 -17 11 -12
28 -32 38 -44 14 -16 16 -26 8 -40 -7 -15 -7 -16 3 -8 28 26 73 -13 48 -43
-10 -12 -8 -12 15 -2 36 16 61 -3 52 -40 -6 -24 -6 -25 12 -8 17 15 21 15 41
2 13 -10 19 -22 15 -31 -5 -14 -3 -15 14 -6 11 6 24 8 28 4 3 -4 12 -7 18 -7
7 0 11 -11 9 -23 -2 -21 0 -22 13 -8 24 24 78 -2 68 -32 -3 -11 1 -9 11 5 14
19 21 20 45 12 22 -8 28 -15 25 -32 -5 -22 -4 -22 5 0 14 32 68 32 81 1 7 -18
9 -19 9 -5 1 11 9 17 26 17 14 0 28 0 33 1 4 0 10 -10 14 -23 6 -22 6 -22 7 3
1 22 6 26 33 27 19 0 37 -6 44 -16 11 -16 12 -15 11 3 -1 11 3 20 10 20 6 0
15 3 19 8 4 4 19 0 32 -9 23 -15 25 -15 19 0 -8 21 40 43 57 26 15 -15 26 -12
20 5 -9 21 43 40 64 23 13 -11 14 -10 8 10 -6 18 -2 24 21 33 19 7 29 7 31 0
6 -19 20 -12 15 8 -7 26 32 48 53 30 9 -7 14 -8 14 -1 0 6 -5 14 -11 17 -7 5
-5 13 6 25 17 19 31 20 53 7 6 -5 12 -4 12 2 0 5 -5 11 -12 13 -9 3 -6 13 8
31 19 23 22 24 36 10 12 -11 17 -12 23 -2 5 8 4 10 -3 5 -20 -12 -14 29 6 47
15 13 21 14 32 4 12 -10 12 -9 1 5 -10 13 -10 20 1 37 7 12 19 19 26 16 9 -3
12 1 8 13 -3 9 1 25 9 35 11 15 17 17 37 7 21 -10 22 -10 5 4 -27 21 -17 50
18 57 17 4 22 7 11 8 -14 1 -17 6 -12 24 3 12 6 26 6 31 0 4 7 5 16 2 11 -4
14 -1 9 13 -10 32 5 53 34 47 25 -5 25 -5 3 6 -17 8 -21 17 -16 32 4 12 11 24
17 27 5 4 7 11 4 15 -2 5 -1 19 4 32 7 18 14 22 31 17 22 -6 22 -5 3 6 -11 7
-22 13 -23 15 -12 9 13 44 31 45 l22 0 -21 9 c-16 6 -20 15 -17 34 3 14 8 24
12 22 4 -3 13 0 21 5 12 8 11 9 -5 7 -13 -2 -19 2 -17 12 2 8 5 33 7 55 4 56
4 57 15 50 6 -3 10 -1 10 4 0 6 -4 11 -9 11 -5 0 -8 42 -8 93 2 62 6 92 14 92
6 0 15 4 20 8 4 5 4 8 -2 7 -25 -5 -35 2 -35 26 0 19 4 25 15 21 8 -4 17 -1
21 5 4 6 3 8 -2 5 -20 -12 -33 11 -39 66 -5 47 -4 57 9 57 8 0 18 5 22 12 4 6
3 8 -4 5 -21 -14 -44 5 -39 31 3 14 0 36 -6 50 -8 18 -8 25 2 31 10 6 9 10 -3
14 -24 9 -20 46 7 58 l22 10 -23 -5 c-15 -3 -26 2 -32 14 -14 26 -12 40 4 40
8 0 18 4 21 10 3 5 0 8 -7 5 -18 -7 -37 7 -41 30 -2 11 -9 30 -16 43 -11 20
-10 26 6 39 17 14 17 14 -4 10 -17 -4 -24 1 -32 23 -8 25 -7 29 12 33 19 4 18
4 -4 6 -15 0 -30 8 -33 17 -8 21 -8 20 10 39 15 15 15 16 -7 10 -18 -4 -28 0
-38 16 -11 19 -11 23 3 31 9 5 16 14 16 21 0 8 -2 9 -8 1 -11 -17 -41 -12 -48
8 -3 10 -1 25 6 33 9 11 7 12 -11 8 -31 -9 -67 40 -36 50 6 2 3 3 -9 1 -22 -4
-65 37 -46 44 7 2 12 8 12 14 0 6 -6 5 -16 -2 -13 -11 -19 -10 -36 8 -18 18
-19 23 -8 37 12 14 10 15 -13 6 -31 -12 -61 15 -51 45 7 19 6 19 -8 0 -11 -13
-17 -16 -22 -7 -4 6 -11 9 -16 6 -12 -7 -23 32 -14 47 4 7 -1 5 -12 -4 -18
-16 -22 -16 -42 -2 -12 8 -22 23 -22 32 -1 16 -1 16 -10 0 -9 -14 -15 -14 -41
-5 -20 8 -29 17 -26 28 4 15 1 15 -21 3 -31 -16 -61 0 -55 30 3 20 3 20 -8 -1
-14 -26 -18 -27 -53 -13 -18 7 -24 14 -20 27 5 15 3 14 -13 -3 -23 -27 -69
-18 -66 12 1 18 1 18 -11 2 -8 -11 -26 -18 -44 -18 -21 0 -32 6 -35 18 -4 16
-5 16 -6 0 0 -10 -7 -18 -15 -18 -8 0 -21 -3 -30 -6 -11 -4 -19 2 -25 17 -9
23 -10 23 -10 3 -1 -27 -50 -40 -67 -18 -12 15 -25 19 -23 7 6 -35 -44 -44
-68 -13 -10 13 -11 12 -7 -6 8 -29 -40 -43 -66 -19 -16 15 -17 14 -13 -7 3
-17 -3 -26 -22 -35 -14 -6 -25 -8 -25 -3 0 4 -6 10 -14 13 -8 3 -13 -1 -12
-10 0 -8 -9 -21 -20 -29 -19 -13 -24 -13 -38 2 -16 15 -17 15 -11 -8 5 -20 1
-27 -22 -37 -19 -9 -29 -9 -31 -2 -2 6 -8 11 -14 11 -6 0 -5 -6 2 -16 11 -13
10 -18 -7 -36 -18 -17 -24 -18 -44 -8 -23 13 -23 12 -7 -7 16 -17 16 -21 3
-40 -10 -15 -22 -20 -37 -16 -22 5 -22 5 -4 -9 25 -20 13 -62 -15 -53 -11 4
-19 2 -19 -5 0 -6 4 -9 9 -6 15 10 20 -19 6 -38 -7 -9 -16 -17 -20 -16 -4 1
-9 -1 -12 -4 -4 -3 -1 -6 5 -6 9 0 9 -5 0 -20 -9 -15 -20 -19 -38 -16 -14 3
-19 3 -12 0 16 -8 15 -22 -4 -41 -14 -14 -19 -15 -38 -3 -20 12 -20 12 -6 -5
13 -15 12 -19 -9 -36 -20 -16 -25 -17 -38 -4 -19 20 -29 19 -12 -1 10 -13 10
-17 -2 -25 -22 -14 -40 -11 -54 8 -12 15 -12 14 -8 -10 5 -25 3 -27 -20 -23
-15 2 -28 -1 -31 -7 -2 -7 -5 -1 -5 12 -1 22 -3 23 -13 9 -7 -9 -20 -18 -28
-20 -19 -6 -43 18 -35 34 4 7 0 5 -8 -5 -21 -26 -63 -16 -59 13 2 21 1 22 -15
8 -27 -22 -56 -12 -50 18 4 23 3 23 -13 9 -15 -14 -18 -13 -35 5 -15 17 -16
22 -4 37 13 17 13 17 -5 3 -16 -13 -20 -12 -38 9 -14 19 -16 26 -6 32 6 4 16
5 22 2 5 -3 6 -1 3 5 -4 5 -16 8 -27 5 -22 -6 -43 28 -22 35 7 2 12 8 12 13 0
6 -4 8 -9 4 -10 -6 -31 24 -31 44 0 5 10 12 23 14 l22 4 -22 2 c-13 0 -23 7
-24 14 -1 6 -3 33 -5 60 -3 36 -1 47 10 47 8 0 17 4 20 9 3 4 -5 6 -19 3 -23
-4 -24 -3 -22 59 2 58 4 64 22 61 15 -2 17 -1 6 7 -8 5 -20 7 -28 4 -9 -3 -13
3 -13 21 0 24 10 31 35 26 5 -1 6 2 2 7 -5 4 -14 8 -20 8 -8 0 -12 21 -12 60
0 51 3 60 17 59 10 -1 15 2 12 7 -3 5 -11 9 -18 9 -9 0 -12 30 -13 120 0 92 3
120 13 120 7 0 15 4 18 9 3 5 -2 8 -12 7 -12 -1 -18 8 -20 27 -2 16 1 27 9 27
9 0 8 4 -1 15 -10 12 -9 20 4 40 9 14 12 25 7 25 -5 0 -9 27 -9 59 0 53 2 60
22 64 21 4 21 4 -1 6 -17 1 -23 7 -23 26 0 20 5 25 28 26 27 0 27 0 4 10 -28
11 -28 55 1 53 9 -1 17 2 17 7 0 5 -9 9 -20 9 -26 0 -28 46 -2 53 13 4 14 5 1
6 -12 1 -14 9 -11 32 4 24 9 30 23 26 11 -3 17 -1 13 4 -3 5 -12 9 -20 9 -8 0
-14 10 -14 25 0 17 6 25 17 25 16 0 16 1 0 13 -20 14 -12 61 9 53 7 -3 16 -1
19 4 4 6 -3 10 -14 10 -16 0 -21 6 -21 25 0 24 9 30 40 25 8 -1 12 1 8 5 -3 3
-14 8 -25 9 -10 2 -18 8 -17 14 1 7 2 19 3 28 0 10 7 14 16 11 8 -4 17 -2 20
4 4 5 3 9 -2 8 -26 -4 -34 3 -31 29 2 20 8 26 23 24 18 -2 18 -2 3 8 -10 6
-18 22 -18 35 0 18 6 25 28 28 l27 4 -28 2 c-25 1 -28 5 -25 29 2 17 9 27 20
27 9 0 20 4 25 8 4 5 4 8 -2 7 -25 -5 -35 2 -35 26 0 14 4 23 10 19 6 -3 10
-1 10 5 0 6 6 8 13 4 7 -4 9 -3 4 2 -5 5 -14 9 -20 9 -7 0 -12 6 -11 13 3 37
5 41 24 37 11 -2 18 0 15 6 -4 5 -13 9 -21 9 -8 0 -14 10 -14 25 0 15 5 25 13
24 30 -4 41 3 19 12 -21 8 -23 14 -18 56 2 27 5 51 5 56 1 4 11 7 24 8 l22 0
-22 11 c-29 14 -31 48 -3 48 11 0 20 4 20 10 0 5 -6 9 -12 7 -8 -1 -14 10 -16
26 -3 24 0 27 25 28 27 0 27 1 6 9 -13 5 -23 16 -23 25 0 8 -7 15 -15 15 -8 0
-15 7 -15 15 0 8 -4 15 -10 15 -5 0 -9 -5 -7 -12 1 -6 -13 -14 -30 -18 -30 -7
-33 -5 -33 17 0 14 -4 21 -10 18 -6 -4 -8 -10 -5 -15 5 -9 -34 -19 -53 -12 -7
2 -12 10 -12 18 0 8 -4 14 -10 14 -5 0 -9 -3 -9 -7 4 -22 -3 -29 -23 -27 -13
1 -26 3 -30 3 -5 1 -8 8 -8 16 0 8 -5 15 -11 15 -5 0 -8 -4 -5 -8 2 -4 1 -14
-5 -22 -5 -10 -9 -11 -9 -3 0 8 -20 11 -65 10 -59 -2 -65 0 -65 18 0 19 0 19
-14 -1 -23 -32 -80 -21 -70 14 2 9 0 8 -7 -4 -15 -29 -75 -28 -71 2 2 18 2 18
-10 -1 -17 -26 -68 -31 -68 -7 -1 16 -1 16 -13 0 -8 -9 -22 -15 -33 -13 -10 2
-22 4 -26 4 -5 1 -8 9 -8 19 -1 15 -2 16 -13 1 -7 -9 -25 -16 -42 -15 -23 1
-29 5 -27 20 2 11 -1 15 -7 11 -6 -3 -11 -13 -11 -21 0 -11 -9 -14 -32 -12
-26 2 -32 7 -30 22 2 11 -1 15 -7 11 -6 -3 -11 -13 -11 -21 0 -9 -11 -14 -30
-14 -23 0 -30 4 -30 20 0 11 -5 20 -11 20 -5 0 -8 -4 -5 -8 2 -4 1 -14 -3 -21
-11 -17 -61 -3 -61 18 -1 14 -2 14 -14 -1 -7 -10 -25 -18 -40 -18 -18 0 -26 5
-26 18 -1 16 -1 16 -14 0 -16 -22 -66 -24 -66 -3 0 8 -5 15 -10 15 -6 0 -9 -6
-8 -12 4 -18 -53 -23 -63 -6 -8 11 -10 11 -18 0 -10 -16 -66 -12 -66 5 0 6 -4
15 -8 20 -5 4 -8 4 -7 -2 6 -29 -1 -36 -32 -33 -18 2 -33 8 -33 15 0 6 -4 15
-8 20 -5 4 -8 4 -7 -2 6 -29 -1 -36 -32 -33 -18 2 -33 8 -33 15 0 6 -4 15 -8
20 -5 4 -8 4 -7 -2 6 -26 -2 -35 -28 -35 -20 0 -32 7 -40 23 l-11 22 0 -22
c-1 -18 -7 -23 -27 -23 -15 0 -33 8 -40 18 -13 16 -13 16 -14 0 0 -13 -8 -18
-26 -18 -15 0 -33 8 -40 18 -12 15 -13 15 -14 1 0 -14 -47 -37 -55 -27 -1 2
-7 12 -13 23 -11 19 -11 19 -12 -2 0 -19 -6 -23 -31 -23 -24 0 -32 5 -37 23
-6 22 -6 22 -12 -3 -8 -33 -60 -38 -68 -6 -6 20 -6 20 -12 -3 -7 -30 -51 -39
-75 -15 -15 15 -15 14 -9 -11 5 -20 4 -26 -5 -21 -6 4 -11 3 -11 -3 0 -17 -34
-18 -54 -2 -18 15 -18 15 -6 -8 11 -22 10 -27 -10 -43 -17 -14 -26 -16 -36 -7
-17 14 -18 -2 -1 -20 10 -10 7 -16 -11 -31 -13 -11 -31 -17 -40 -14 -14 5 -14
4 -2 -4 8 -6 18 -8 24 -5 5 4 7 -1 3 -11 -4 -10 -7 -24 -7 -32 0 -9 -5 -12
-10 -9 -7 4 -8 -7 -4 -34 6 -37 5 -40 -15 -36 -11 2 -21 -1 -21 -6 0 -5 8 -9
18 -7 29 5 29 -50 0 -62 l-23 -11 23 5 c33 6 54 -38 27 -58 -17 -12 -16 -13 6
-11 33 3 54 -34 30 -52 -14 -11 -13 -13 12 -9 34 6 56 -26 35 -51 -12 -15 -11
-15 11 -4 20 11 26 10 45 -9 15 -16 17 -24 9 -27 -7 -3 -13 -9 -13 -14 0 -5 9
-4 19 3 25 16 60 -14 41 -36 -9 -12 -8 -13 7 -10 11 3 27 -3 37 -15 11 -12 15
-21 10 -21 -5 0 2 -7 14 -16 27 -18 28 -32 5 -51 -16 -12 -15 -13 8 -7 21 4
27 1 32 -17 4 -15 0 -27 -11 -35 -15 -12 -15 -12 4 -8 16 4 23 0 27 -18 4 -13
2 -24 -3 -26 -15 -5 -12 -22 3 -20 7 2 12 -9 13 -29 0 -18 3 -36 7 -39 4 -4 7
-16 7 -26 0 -16 -17 -23 -43 -19 -5 1 -6 -3 -3 -8 3 -5 15 -7 26 -4 16 4 20 0
20 -21 0 -14 -4 -27 -10 -27 -5 -1 -14 -2 -19 -3 -5 0 -13 -5 -18 -9 -4 -5 -3
-8 2 -7 25 5 35 -2 35 -25 0 -17 -6 -25 -17 -25 -14 0 -15 -2 -5 -9 19 -11 11
-46 -10 -46 -9 0 -20 -4 -25 -8 -4 -5 -1 -7 7 -5 10 2 16 -6 18 -24 3 -25 0
-28 -24 -28 -26 0 -27 -1 -9 -14 24 -17 13 -46 -17 -46 -20 -1 -21 -2 -6 -11
25 -14 4 -60 -26 -55 -12 2 -15 1 -8 -1 31 -11 3 -58 -29 -50 -22 5 -22 5 -6
-7 10 -8 15 -20 11 -29 -7 -20 -39 -28 -55 -13 -8 6 -6 2 4 -10 16 -20 16 -22
-2 -38 -11 -10 -25 -15 -31 -11 -8 5 -10 1 -6 -12 8 -27 -40 -55 -54 -33 -6 8
-10 10 -10 4 0 -5 6 -16 13 -23 10 -10 8 -15 -8 -24 -25 -15 -38 -15 -48 -2
-4 5 -5 -3 -1 -19 5 -20 3 -27 -4 -22 -6 3 -13 2 -17 -4 -4 -7 -12 -7 -25 0
-16 8 -18 7 -14 -4 9 -24 -17 -45 -43 -35 -18 7 -21 5 -18 -12 2 -11 0 -17 -6
-14 -5 4 -9 2 -9 -3 0 -12 -32 -12 -47 0 -8 6 -10 4 -7 -9 3 -12 -4 -22 -21
-30 -22 -10 -27 -8 -41 10 -14 19 -16 19 -10 3 4 -11 1 -23 -6 -28 -20 -12
-56 -10 -61 5 -3 6 -6 1 -6 -12 -1 -18 -5 -22 -21 -18 -10 3 -21 0 -23 -7 -3
-6 -9 0 -14 13 l-10 25 -6 -26 c-6 -22 -12 -26 -34 -24 -15 2 -30 11 -34 22
-7 16 -8 15 -8 -6 -1 -20 -6 -25 -24 -25 -13 1 -28 4 -34 8 -6 4 -22 3 -35 -2
-27 -10 -42 -4 -51 19 -4 13 -6 12 -6 -1 -2 -31 -71 -31 -71 -1 0 15 -2 15
-10 2 -18 -29 -73 -13 -64 18 4 11 1 10 -8 -4 -10 -15 -19 -19 -38 -14 -15 4
-24 13 -24 23 1 14 -1 14 -20 2 -18 -12 -24 -12 -40 0 -12 9 -16 20 -12 31 6
16 5 17 -11 2 -21 -19 -68 -7 -60 15 3 8 -1 14 -9 14 -8 0 -14 -4 -14 -9 0 -5
-9 -4 -21 2 -16 9 -19 17 -14 38 6 25 5 26 -8 8 -12 -16 -16 -17 -36 -5 -12 8
-20 21 -18 30 3 11 -1 16 -12 14 -9 -1 -24 2 -34 7 -14 7 -15 13 -6 29 9 19 9
20 -7 11 -14 -8 -22 -5 -37 11 -18 21 -18 22 0 35 16 12 15 13 -9 7 -20 -5
-29 -2 -37 14 -9 16 -8 22 6 31 16 10 15 10 -4 5 -32 -9 -52 30 -26 52 10 8
12 12 6 8 -15 -7 -53 12 -53 27 0 6 8 17 18 24 15 12 15 12 -5 7 -18 -4 -25 0
-32 18 -7 19 -4 26 13 37 13 7 15 12 6 11 -31 -3 -40 2 -40 21 0 10 8 24 18
30 16 11 16 11 -1 6 -22 -7 -45 43 -25 55 6 4 17 5 23 2 5 -4 6 -2 2 3 -5 5
-14 9 -20 9 -7 0 -12 11 -12 25 0 14 5 25 12 25 6 0 15 4 20 8 4 5 4 8 -2 7
-25 -5 -35 2 -35 26 0 19 4 25 15 21 8 -4 17 -2 20 4 4 5 3 9 -2 8 -24 -4 -33
4 -33 31 0 27 2 30 19 20 14 -7 22 -7 27 2 4 6 3 8 -3 5 -6 -4 -17 0 -24 9
-10 12 -10 20 -1 35 7 10 12 27 12 38 0 26 23 44 38 29 8 -8 12 -9 12 -1 0 6
-6 13 -14 16 -21 8 -8 47 16 47 15 0 18 5 13 20 -5 15 0 21 19 26 14 3 31 2
38 -2 10 -6 9 -3 -1 9 -12 15 -12 19 5 31 13 10 24 11 37 4 10 -5 21 -7 25 -4
3 3 0 6 -6 6 -22 0 -12 30 13 42 19 8 28 8 42 -3 16 -13 17 -12 5 3 -20 26 5
61 38 53 18 -4 21 -3 10 4 -12 8 -12 13 0 36 8 16 19 24 28 20 10 -4 13 0 9
14 -3 11 1 28 7 37 11 14 17 15 37 5 22 -11 23 -11 5 3 -13 11 -17 22 -12 41
6 23 11 26 34 20 27 -6 27 -6 5 10 -30 21 -17 61 18 58 l24 -3 -22 10 c-24 10
-31 34 -13 45 6 4 7 23 4 46 -6 35 -5 39 12 33 18 -5 18 -5 2 9 -20 16 -24 57
-6 57 7 0 5 5 -4 13 -22 17 -33 57 -16 58 7 1 17 1 21 0 5 -1 6 3 3 8 -3 5
-14 7 -24 5 -10 -3 -22 3 -29 15 -10 16 -10 23 3 36 17 16 8 20 -15 6 -20 -13
-54 24 -46 52 4 14 3 17 -3 9 -5 -8 -19 -10 -41 -6 -29 6 -32 10 -28 33 5 25
4 25 -9 6 -22 -29 -93 -12 -78 19 3 6 -1 3 -9 -6 -16 -21 -57 -24 -75 -6 -9 9
-12 9 -12 0 0 -7 -13 -12 -30 -12 -22 0 -33 6 -40 23 l-9 22 0 -22 c-1 -16 -7
-23 -21 -23 -11 0 -23 -1 -27 -1 -5 -1 -14 9 -20 22 l-13 24 0 -22 c0 -19 -6
-23 -30 -23 -22 0 -33 6 -40 23 l-9 22 0 -22z"/>
<path d="M5395 7230 c3 -5 8 -10 11 -10 2 0 4 5 4 10 0 6 -5 10 -11 10 -5 0
-7 -4 -4 -10z"/>
<path d="M5750 6949 c0 -5 5 -7 10 -4 6 3 10 8 10 11 0 2 -4 4 -10 4 -5 0 -10
-5 -10 -11z"/>
<path d="M3770 6280 c0 -5 5 -10 11 -10 5 0 7 5 4 10 -3 6 -8 10 -11 10 -2 0
-4 -4 -4 -10z"/>
<path d="M5678 5903 c7 -3 16 -2 19 1 4 3 -2 6 -13 5 -11 0 -14 -3 -6 -6z"/>
<path d="M5668 5643 c7 -3 16 -2 19 1 4 3 -2 6 -13 5 -11 0 -14 -3 -6 -6z"/>
<path d="M5680 5059 c0 -5 5 -7 10 -4 6 3 10 8 10 11 0 2 -4 4 -10 4 -5 0 -10
-5 -10 -11z"/>
<path d="M7966 4248 c3 -5 10 -6 15 -3 13 9 11 12 -6 12 -8 0 -12 -4 -9 -9z"/>
<path d="M7970 4056 c0 -2 7 -7 16 -10 8 -3 12 -2 9 4 -6 10 -25 14 -25 6z"/>
<path d="M7978 3983 c7 -3 16 -2 19 1 4 3 -2 6 -13 5 -11 0 -14 -3 -6 -6z"/>
<path d="M7968 3853 c7 -3 16 -2 19 1 4 3 -2 6 -13 5 -11 0 -14 -3 -6 -6z"/>
<path d="M11 3274 c0 -11 3 -14 6 -6 3 7 2 16 -1 19 -3 4 -6 -2 -5 -13z"/>
<path d="M6470 3169 c0 -5 5 -7 10 -4 6 3 10 8 10 11 0 2 -4 4 -10 4 -5 0 -10
-5 -10 -11z"/>
<path d="M5726 3157 c3 -10 9 -15 12 -12 3 3 0 11 -7 18 -10 9 -11 8 -5 -6z"/>
<path d="M5708 2703 c7 -3 16 -2 19 1 4 3 -2 6 -13 5 -11 0 -14 -3 -6 -6z"/>
<path d="M3256 1902 c-3 -5 1 -9 9 -9 8 0 12 4 9 9 -3 4 -7 8 -9 8 -2 0 -6 -4
-9 -8z"/>
<path d="M5790 1800 c0 -5 5 -10 11 -10 5 0 7 5 4 10 -3 6 -8 10 -11 10 -2 0
-4 -4 -4 -10z"/>
<path d="M3175 1660 c-3 -5 -1 -10 4 -10 6 0 11 5 11 10 0 6 -2 10 -4 10 -3 0
-8 -4 -11 -10z"/>
<path d="M15 1640 c-3 -5 -1 -10 4 -10 6 0 11 5 11 10 0 6 -2 10 -4 10 -3 0
-8 -4 -11 -10z"/>
<path d="M5820 1540 c0 -5 5 -10 11 -10 5 0 7 5 4 10 -3 6 -8 10 -11 10 -2 0
-4 -4 -4 -10z"/>
<path d="M25 1250 c-3 -6 1 -7 9 -4 18 7 21 14 7 14 -6 0 -13 -4 -16 -10z"/>
<path d="M1910 1216 c0 -2 7 -7 16 -10 8 -3 12 -2 9 4 -6 10 -25 14 -25 6z"/>
<path d="M1900 1080 c0 -6 7 -10 15 -10 8 0 15 2 15 4 0 2 -7 6 -15 10 -8 3
-15 1 -15 -4z"/>
</g>
</svg>
